<?xml version="1.0" encoding="utf-8"?>
<!-- Generator: Adobe Illustrator 24.0.1, SVG Export Plug-In . SVG Version: 6.00 Build 0)  -->
<svg version="1.1" id="Layer_1" xmlns="http://www.w3.org/2000/svg" xmlns:xlink="http://www.w3.org/1999/xlink" x="0px" y="0px"
	 viewBox="0 0 500 152" style="enable-background:new 0 0 500 152;" xml:space="preserve">
<style type="text/css">
	.st0{fill:#2B2153;}
	.st1{fill:#C69D4B;}
	.st2{fill:#E83838;}
</style>
<g>
	<g>
		<g>
			<g>
				<path class="st0" d="M130.7,10.2H42c-0.9,0-1.6-0.7-1.6-1.6S41.1,7,42,7h88.7c0.9,0,1.6,0.7,1.6,1.6S131.6,10.2,130.7,10.2z"/>
			</g>
		</g>
		<g>
			<g>
				<path class="st0" d="M130.7,22.8h-20.6c-0.9,0-1.6-0.7-1.6-1.6s0.7-1.6,1.6-1.6h20.6c0.9,0,1.6,0.7,1.6,1.6
					S131.6,22.8,130.7,22.8z"/>
			</g>
		</g>
		<g>
			<g>
				<path class="st0" d="M61.9,22.8H42c-0.9,0-1.6-0.7-1.6-1.6s0.7-1.6,1.6-1.6h20c0.9,0,1.6,0.7,1.6,1.6S62.8,22.8,61.9,22.8z"/>
			</g>
		</g>
		<g>
			<g>
				<path class="st0" d="M155.5,142.1H16.6c-0.9,0-1.6-0.7-1.6-1.6c0-0.9,0.7-1.6,1.6-1.6h138.9c0.9,0,1.6,0.7,1.6,1.6
					C157.1,141.3,156.4,142.1,155.5,142.1z"/>
			</g>
		</g>
		<g>
			<g>
				<path class="st0" d="M123,141.4c-0.9,0-1.6-0.7-1.6-1.6V9.3c0-0.9,0.7-1.6,1.6-1.6c0.9,0,1.6,0.7,1.6,1.6v130.5
					C124.6,140.7,123.9,141.4,123,141.4z"/>
			</g>
		</g>
		<g>
			<g>
				<path class="st0" d="M123,141.7c-0.9,0-1.6-0.7-1.6-1.6V8.9c0-0.9,0.7-1.6,1.6-1.6c0.9,0,1.6,0.7,1.6,1.6v131.2
					C124.6,141,123.9,141.7,123,141.7z"/>
			</g>
		</g>
		<g>
			<g>
				<path class="st0" d="M123,141.7c-0.9,0-1.6-0.7-1.6-1.6V8.9c0-0.9,0.7-1.6,1.6-1.6c0.9,0,1.6,0.7,1.6,1.6v131.2
					C124.6,141,123.9,141.7,123,141.7z"/>
			</g>
		</g>
		<g>
			<g>
				<path class="st0" d="M123,141.7c-0.9,0-1.6-0.7-1.6-1.6V8.9c0-0.9,0.7-1.6,1.6-1.6c0.9,0,1.6,0.7,1.6,1.6v131.2
					C124.6,141,123.9,141.7,123,141.7z"/>
			</g>
		</g>
		<g>
			<g>
				<path class="st0" d="M123.7,141.7c-0.9,0-1.6-0.7-1.6-1.6V8.9c0-0.9,0.7-1.6,1.6-1.6c0.9,0,1.6,0.7,1.6,1.6v131.2
					C125.3,141,124.5,141.7,123.7,141.7z"/>
			</g>
		</g>
		<g>
			<g>
				<path class="st0" d="M48.4,141.7c-0.9,0-1.6-0.7-1.6-1.6V8.9c0-0.9,0.7-1.6,1.6-1.6S50,8,50,8.9v131.2
					C50,141,49.3,141.7,48.4,141.7z"/>
			</g>
		</g>
		<g>
			<rect x="41.7" y="109.3" class="st1" width="88" height="12.2"/>
		</g>
		<g>
			<g>
				<path class="st0" d="M129.7,107.7h-88c-0.9,0-1.6,0.7-1.6,1.6v12.2c0,0.9,0.7,1.6,1.6,1.6h88c0.9,0,1.6-0.7,1.6-1.6v-12.2
					C131.3,108.4,130.6,107.7,129.7,107.7z M128.1,119.9H43.3v-9h84.8V119.9z"/>
			</g>
		</g>
		<g>
			<path class="st1" d="M109.5,57.5c-0.2,0-0.3-0.1-0.3-0.3V22.4c0-0.2,0.1-0.3,0.3-0.3c0.2,0,0.3,0.1,0.3,0.3v34.7
				C109.8,57.3,109.7,57.5,109.5,57.5z"/>
		</g>
		<g>
			<path class="st1" d="M106.5,57.5c-0.2,0-0.3-0.1-0.3-0.3v-26c0-0.2,0.1-0.3,0.3-0.3s0.3,0.1,0.3,0.3v26
				C106.9,57.3,106.7,57.5,106.5,57.5z"/>
		</g>
		<g>
			<path class="st1" d="M105.2,95.4c-0.2,0-0.3-0.1-0.3-0.3V58.8c0-0.2,0.1-0.3,0.3-0.3c0.2,0,0.3,0.1,0.3,0.3v36.3
				C105.6,95.3,105.4,95.4,105.2,95.4z"/>
		</g>
		<g>
			<path class="st1" d="M102.3,95.4c-0.2,0-0.3-0.1-0.3-0.3V58.8c0-0.2,0.1-0.3,0.3-0.3c0.2,0,0.3,0.1,0.3,0.3v36.3
				C102.6,95.3,102.5,95.4,102.3,95.4z"/>
		</g>
		<g>
			<path class="st1" d="M99.3,95.4c-0.2,0-0.3-0.1-0.3-0.3V58.8c0-0.2,0.1-0.3,0.3-0.3c0.2,0,0.3,0.1,0.3,0.3v36.3
				C99.6,95.3,99.5,95.4,99.3,95.4z"/>
		</g>
		<g>
			<path class="st1" d="M93.4,95.4c-0.2,0-0.3-0.1-0.3-0.3V58.8c0-0.2,0.1-0.3,0.3-0.3c0.2,0,0.3,0.1,0.3,0.3v36.3
				C93.7,95.3,93.6,95.4,93.4,95.4z"/>
		</g>
		<g>
			<path class="st1" d="M96.3,95.4c-0.2,0-0.3-0.1-0.3-0.3V58.8c0-0.2,0.1-0.3,0.3-0.3c0.2,0,0.3,0.1,0.3,0.3v36.3
				C96.7,95.3,96.5,95.4,96.3,95.4z"/>
		</g>
		<g>
			<path class="st1" d="M90.4,95.4c-0.2,0-0.3-0.1-0.3-0.3V58.8c0-0.2,0.1-0.3,0.3-0.3c0.2,0,0.3,0.1,0.3,0.3v36.3
				C90.7,95.3,90.6,95.4,90.4,95.4z"/>
		</g>
		<g>
			<path class="st1" d="M87.4,95.4c-0.2,0-0.3-0.1-0.3-0.3V58.8c0-0.2,0.1-0.3,0.3-0.3c0.2,0,0.3,0.1,0.3,0.3v36.3
				C87.8,95.3,87.6,95.4,87.4,95.4z"/>
		</g>
		<g>
			<path class="st1" d="M81.5,95.4c-0.2,0-0.3-0.1-0.3-0.3V58.8c0-0.2,0.1-0.3,0.3-0.3c0.2,0,0.3,0.1,0.3,0.3v36.3
				C81.8,95.3,81.7,95.4,81.5,95.4z"/>
		</g>
		<g>
			<path class="st1" d="M84.5,95.4c-0.2,0-0.3-0.1-0.3-0.3V58.8c0-0.2,0.1-0.3,0.3-0.3s0.3,0.1,0.3,0.3v36.3
				C84.8,95.3,84.6,95.4,84.5,95.4z"/>
		</g>
		<g>
			<path class="st1" d="M78.5,95.4c-0.2,0-0.3-0.1-0.3-0.3V58.8c0-0.2,0.1-0.3,0.3-0.3c0.2,0,0.3,0.1,0.3,0.3v36.3
				C78.9,95.3,78.7,95.4,78.5,95.4z"/>
		</g>
		<g>
			<path class="st1" d="M72.6,95.4c-0.2,0-0.3-0.1-0.3-0.3V58.8c0-0.2,0.1-0.3,0.3-0.3s0.3,0.1,0.3,0.3v36.3
				C72.9,95.3,72.8,95.4,72.6,95.4z"/>
		</g>
		<g>
			<path class="st1" d="M75.6,95.4c-0.2,0-0.3-0.1-0.3-0.3V58.8c0-0.2,0.1-0.3,0.3-0.3c0.2,0,0.3,0.1,0.3,0.3v36.3
				C75.9,95.3,75.7,95.4,75.6,95.4z"/>
		</g>
		<g>
			<path class="st1" d="M69.6,95.4c-0.2,0-0.3-0.1-0.3-0.3V58.8c0-0.2,0.1-0.3,0.3-0.3c0.2,0,0.3,0.1,0.3,0.3v36.3
				C70,95.3,69.8,95.4,69.6,95.4z"/>
		</g>
		<g>
			<path class="st1" d="M66.7,95.4c-0.2,0-0.3-0.1-0.3-0.3V58.8c0-0.2,0.1-0.3,0.3-0.3c0.2,0,0.3,0.1,0.3,0.3v36.3
				C67,95.3,66.8,95.4,66.7,95.4z"/>
		</g>
		<g>
			<path class="st1" d="M103.6,57.5c-0.2,0-0.3-0.1-0.3-0.3v-26c0-0.2,0.1-0.3,0.3-0.3c0.2,0,0.3,0.1,0.3,0.3v26
				C103.9,57.3,103.7,57.5,103.6,57.5z"/>
		</g>
		<g>
			<path class="st1" d="M100.6,57.5c-0.2,0-0.3-0.1-0.3-0.3v-26c0-0.2,0.1-0.3,0.3-0.3c0.2,0,0.3,0.1,0.3,0.3v26
				C100.9,57.3,100.8,57.5,100.6,57.5z"/>
		</g>
		<g>
			<path class="st1" d="M94.6,57.5c-0.2,0-0.3-0.1-0.3-0.3v-26c0-0.2,0.1-0.3,0.3-0.3c0.2,0,0.3,0.1,0.3,0.3v26
				C95,57.3,94.8,57.5,94.6,57.5z"/>
		</g>
		<g>
			<path class="st1" d="M97.6,57.5c-0.2,0-0.3-0.1-0.3-0.3v-26c0-0.2,0.1-0.3,0.3-0.3c0.2,0,0.3,0.1,0.3,0.3v26
				C97.9,57.3,97.8,57.5,97.6,57.5z"/>
		</g>
		<g>
			<path class="st1" d="M91.7,57.5c-0.2,0-0.3-0.1-0.3-0.3v-26c0-0.2,0.1-0.3,0.3-0.3c0.2,0,0.3,0.1,0.3,0.3v26
				C92,57.3,91.8,57.5,91.7,57.5z"/>
		</g>
		<g>
			<path class="st1" d="M85.7,57.5c-0.2,0-0.3-0.1-0.3-0.3v-26c0-0.2,0.1-0.3,0.3-0.3c0.2,0,0.3,0.1,0.3,0.3v26
				C86,57.3,85.9,57.5,85.7,57.5z"/>
		</g>
		<g>
			<path class="st1" d="M88.7,57.5c-0.2,0-0.3-0.1-0.3-0.3v-26c0-0.2,0.1-0.3,0.3-0.3c0.2,0,0.3,0.1,0.3,0.3v26
				C89,57.3,88.9,57.5,88.7,57.5z"/>
		</g>
		<g>
			<path class="st1" d="M82.7,57.5c-0.2,0-0.3-0.1-0.3-0.3v-26c0-0.2,0.1-0.3,0.3-0.3c0.2,0,0.3,0.1,0.3,0.3v26
				C83.1,57.3,82.9,57.5,82.7,57.5z"/>
		</g>
		<g>
			<path class="st1" d="M79.8,57.5c-0.2,0-0.3-0.1-0.3-0.3v-26c0-0.2,0.1-0.3,0.3-0.3c0.2,0,0.3,0.1,0.3,0.3v26
				C80.1,57.3,79.9,57.5,79.8,57.5z"/>
		</g>
		<g>
			<path class="st1" d="M76.8,57.5c-0.2,0-0.3-0.1-0.3-0.3v-26c0-0.2,0.1-0.3,0.3-0.3c0.2,0,0.3,0.1,0.3,0.3v26
				C77.1,57.3,77,57.5,76.8,57.5z"/>
		</g>
		<g>
			<path class="st1" d="M70.8,57.5c-0.2,0-0.3-0.1-0.3-0.3v-26c0-0.2,0.1-0.3,0.3-0.3c0.2,0,0.3,0.1,0.3,0.3v26
				C71.2,57.3,71,57.5,70.8,57.5z"/>
		</g>
		<g>
			<path class="st1" d="M73.8,57.5c-0.2,0-0.3-0.1-0.3-0.3v-26c0-0.2,0.1-0.3,0.3-0.3s0.3,0.1,0.3,0.3v26
				C74.1,57.3,74,57.5,73.8,57.5z"/>
		</g>
		<g>
			<path class="st1" d="M67.9,57.5c-0.2,0-0.3-0.1-0.3-0.3v-26c0-0.2,0.1-0.3,0.3-0.3c0.2,0,0.3,0.1,0.3,0.3v26
				C68.2,57.3,68,57.5,67.9,57.5z"/>
		</g>
		<g>
			<path class="st1" d="M64.9,57.5c-0.2,0-0.3-0.1-0.3-0.3v-26c0-0.2,0.1-0.3,0.3-0.3c0.2,0,0.3,0.1,0.3,0.3v26
				C65.2,57.3,65.1,57.5,64.9,57.5z"/>
		</g>
		<g>
			<path class="st1" d="M61.9,57.5c-0.2,0-0.3-0.1-0.3-0.3V22.4c0-0.2,0.1-0.3,0.3-0.3s0.3,0.1,0.3,0.3v34.7
				C62.2,57.3,62.1,57.5,61.9,57.5z"/>
		</g>
		<g>
			<g>
				<path class="st0" d="M111.4,60.1H61.3c-0.9,0-1.6-0.7-1.6-1.6s0.7-1.6,1.6-1.6h50.2c0.9,0,1.6,0.7,1.6,1.6
					S112.3,60.1,111.4,60.1z"/>
			</g>
		</g>
		<g>
			<g>
				<path class="st0" d="M115.3,67.1H57.4c-0.9,0-1.6-0.7-1.6-1.6c0-0.9,0.7-1.6,1.6-1.6h57.9c0.9,0,1.6,0.7,1.6,1.6
					C116.9,66.4,116.2,67.1,115.3,67.1z"/>
			</g>
		</g>
		<g>
			<g>
				<rect x="62.6" y="17.9" class="st1" width="46.3" height="6.4"/>
				<path class="st0" d="M108.9,16.3H62.6c-0.9,0-1.6,0.7-1.6,1.6v6.4c0,0.5,0.3,1,0.6,1.3c0.2,0.1,0.4,0.3,0.6,0.3
					c0.1,0,0.2,0,0.3,0h46.3c0.1,0,0.2,0,0.3,0c0.2-0.1,0.5-0.2,0.6-0.3c0.4-0.3,0.6-0.8,0.6-1.3v-6.4
					C110.5,17.1,109.7,16.3,108.9,16.3z M64.2,22.8v-3.2h43.1v3.2H64.2z"/>
			</g>
		</g>
		<g>
			<g>
				<path class="st0" d="M106.3,32.4H65.1c-0.9,0-1.6-0.7-1.6-1.6v-6.4c0-0.9,0.7-1.6,1.6-1.6c0.9,0,1.6,0.7,1.6,1.6v4.8h37.9v-4.8
					c0-0.9,0.7-1.6,1.6-1.6c0.9,0,1.6,0.7,1.6,1.6v6.4C107.9,31.7,107.2,32.4,106.3,32.4z"/>
			</g>
		</g>
		<g>
			<path class="st0" d="M111.1,78.5h-51c-0.2,0-0.3-0.1-0.3-0.3s0.1-0.3,0.3-0.3h51c0.2,0,0.3,0.1,0.3,0.3S111.3,78.5,111.1,78.5z"
				/>
		</g>
		<g>
			<path class="st0" d="M130.7,96.4H42c-0.9,0-1.6-0.7-1.6-1.6c0-0.9,0.7-1.6,1.6-1.6h88.7c0.9,0,1.6,0.7,1.6,1.6
				C132.3,95.7,131.6,96.4,130.7,96.4z"/>
		</g>
	</g>
	<g>
		<path class="st0" d="M200.8,36v65.3h19V36c-2.7,1.7-6,2.7-9.5,2.7C206.8,38.7,203.5,37.7,200.8,36z"/>
		<path class="st0" d="M303.8,28.3V10.1h-66.4v91.1h19V64.8h28.4V46.6h-28.4V28.3H303.8z"/>
		<path class="st0" d="M370.3,10.1v36.5h-37.9V10.1h-19v91.1h19V64.8h37.9v36.4h19V10.1H370.3z"/>
		<path class="st0" d="M478.7,32.4c-2-4.4-4.7-8.3-8.1-11.6c-3.4-3.3-7.5-5.9-12.1-7.8c-4.6-1.9-9.5-2.8-14.8-2.8
			c-5.2,0-10.2,0.9-14.8,2.8c-4.6,1.9-8.6,4.5-12,7.8c-3.4,3.3-6.1,7.2-8.1,11.6c-2,4.4-3,9.2-3,14.2v54.6h18.9V83h38v18.2h19V46.6
			C481.7,41.5,480.7,36.8,478.7,32.4z M462.7,64.8h-38V46.6c0-2.5,0.5-4.9,1.5-7.1c1-2.2,2.3-4.2,4.1-5.8c1.7-1.7,3.7-3,6.1-3.9
			c2.3-0.9,4.8-1.4,7.4-1.4c2.6,0,5.1,0.5,7.4,1.4c2.3,0.9,4.3,2.3,6,3.9c1.7,1.6,3.1,3.6,4.1,5.8c1,2.2,1.5,4.6,1.5,7.1V64.8z"/>
		<g>
			<g>
				<path class="st1" d="M215.2,128.1v-4.2h-15v21h15v-4.2h-10.6v-4.2h7.2v-4.2h-7.2v-4.2H215.2z"/>
				<path class="st1" d="M240.1,123.9v13.8l-8.4-13.8H227v21h4.4V131l8.4,13.8h4.7v-21H240.1z"/>
				<path class="st1" d="M255.5,123.9v4.2h6.5v16.8h4.4v-16.8h6.5v-4.2H255.5z"/>
				<path class="st1" d="M298.9,128.1v-4.2h-15v21h15v-4.2h-10.6v-4.2h7.2v-4.2h-7.2v-4.2H298.9z"/>
				<path class="st1" d="M327.8,130c-0.2-0.7-0.5-1.4-0.9-2c-0.4-0.6-0.8-1.2-1.4-1.7c-0.5-0.5-1.1-0.9-1.8-1.3
					c-0.6-0.4-1.3-0.7-2.1-0.9c-0.7-0.2-1.5-0.3-2.3-0.3h-8.7v21h4.4v-4.2l4.9,0l1.9,4.2h4.7l-2.4-5.5c0.6-0.4,1.2-0.8,1.7-1.3
					c0.5-0.5,0.9-1.1,1.3-1.7c0.4-0.6,0.6-1.3,0.8-1.9c0.2-0.7,0.3-1.4,0.3-2.1C328.1,131.5,328,130.8,327.8,130z M323.4,133.9
					c-0.2,0.5-0.5,0.9-0.9,1.3c-0.4,0.4-0.9,0.7-1.4,0.9c-0.5,0.2-1.1,0.3-1.7,0.3h-4.4v-8.4h4.4c0.6,0,1.2,0.1,1.7,0.3
					c0.5,0.2,1,0.5,1.4,0.9c0.4,0.4,0.7,0.8,0.9,1.3c0.2,0.5,0.3,1,0.3,1.6C323.8,132.9,323.7,133.4,323.4,133.9z"/>
				<path class="st1" d="M356.9,130c-0.2-0.7-0.5-1.4-0.9-2c-0.4-0.6-0.8-1.2-1.4-1.7c-0.5-0.5-1.1-0.9-1.8-1.3
					c-0.6-0.4-1.3-0.7-2.1-0.9c-0.7-0.2-1.5-0.3-2.3-0.3h-8.7v21h4.4v-4.2h4.4c1.2,0,2.3-0.2,3.4-0.7c1.1-0.4,2-1,2.8-1.8
					c0.8-0.8,1.4-1.7,1.9-2.7c0.4-1,0.7-2.1,0.7-3.2C357.2,131.5,357.1,130.8,356.9,130z M352.5,133.9c-0.2,0.5-0.5,0.9-0.9,1.3
					c-0.4,0.4-0.9,0.7-1.4,0.9c-0.5,0.2-1.1,0.3-1.7,0.3h-4.4v-8.4h4.4c0.6,0,1.2,0.1,1.7,0.3c0.5,0.2,1,0.5,1.4,0.9
					c0.4,0.4,0.7,0.8,0.9,1.3c0.2,0.5,0.3,1,0.3,1.6C352.8,132.9,352.7,133.4,352.5,133.9z"/>
				<path class="st1" d="M385.6,130c-0.2-0.7-0.5-1.4-0.9-2c-0.4-0.6-0.8-1.2-1.4-1.7c-0.5-0.5-1.1-0.9-1.8-1.3
					c-0.6-0.4-1.3-0.7-2.1-0.9c-0.7-0.2-1.5-0.3-2.3-0.3h-8.7v21h4.4v-4.2l4.9,0l1.9,4.2h4.7l-2.4-5.5c0.6-0.4,1.2-0.8,1.7-1.3
					c0.5-0.5,0.9-1.1,1.3-1.7c0.4-0.6,0.6-1.3,0.8-1.9c0.2-0.7,0.3-1.4,0.3-2.1C385.9,131.5,385.8,130.8,385.6,130z M381.2,133.9
					c-0.2,0.5-0.5,0.9-0.9,1.3c-0.4,0.4-0.9,0.7-1.4,0.9c-0.5,0.2-1.1,0.3-1.7,0.3h-4.4v-8.4h4.4c0.6,0,1.2,0.1,1.7,0.3
					c0.5,0.2,1,0.5,1.4,0.9c0.4,0.4,0.7,0.8,0.9,1.3c0.2,0.5,0.3,1,0.3,1.6C381.5,132.9,381.4,133.4,381.2,133.9z"/>
				<path class="st1" d="M397.5,123.9v21h4.4v-21H397.5z"/>
				<path class="st1" d="M430.3,136.1c-0.3-0.8-0.8-1.4-1.4-2c-0.6-0.6-1.3-1-2.1-1.3c-0.8-0.3-1.6-0.5-2.6-0.5h-4.4
					c-0.3,0-0.6-0.1-0.9-0.2c-0.3-0.1-0.5-0.3-0.7-0.4c-0.2-0.2-0.4-0.4-0.5-0.7c-0.1-0.3-0.2-0.5-0.2-0.8s0.1-0.6,0.2-0.8
					c0.1-0.3,0.3-0.5,0.5-0.7c0.2-0.2,0.4-0.3,0.7-0.4c0.3-0.1,0.6-0.2,0.9-0.2h10v-4.2h-10c-0.9,0-1.8,0.2-2.5,0.5
					c-0.8,0.3-1.5,0.8-2.1,1.4c-0.6,0.6-1.1,1.2-1.4,2c-0.3,0.8-0.5,1.6-0.5,2.5c0,0.9,0.2,1.7,0.5,2.5c0.4,0.8,0.8,1.4,1.4,2
					s1.3,1,2.1,1.3c0.8,0.3,1.6,0.5,2.5,0.5h4.4c0.3,0,0.6,0.1,0.9,0.2c0.2,0.1,0.5,0.3,0.7,0.4c0.2,0.2,0.4,0.4,0.5,0.7
					c0.1,0.3,0.2,0.5,0.2,0.8c0,0.3-0.1,0.6-0.2,0.8c-0.1,0.3-0.2,0.5-0.5,0.7c-0.2,0.2-0.4,0.3-0.7,0.4c-0.3,0.1-0.6,0.2-0.9,0.2
					h-9.7v4.2h9.7c0.9,0,1.8-0.2,2.6-0.5c0.8-0.3,1.5-0.8,2.1-1.4c0.6-0.6,1.1-1.2,1.4-2c0.3-0.8,0.5-1.6,0.5-2.5
					C430.8,137.7,430.6,136.9,430.3,136.1z"/>
				<path class="st1" d="M457.3,128.1v-4.2h-15v21h15v-4.2h-10.6v-4.2h7.2v-4.2h-7.2v-4.2H457.3z"/>
				<path class="st1" d="M484.5,136.1c-0.3-0.8-0.8-1.4-1.4-2c-0.6-0.6-1.3-1-2.1-1.3c-0.8-0.3-1.6-0.5-2.5-0.5h-4.4
					c-0.3,0-0.6-0.1-0.9-0.2c-0.3-0.1-0.5-0.3-0.7-0.4c-0.2-0.2-0.3-0.4-0.5-0.7c-0.1-0.3-0.2-0.5-0.2-0.8s0.1-0.6,0.2-0.8
					c0.1-0.3,0.3-0.5,0.5-0.7c0.2-0.2,0.4-0.3,0.7-0.4c0.3-0.1,0.6-0.2,0.9-0.2h10v-4.2h-10c-0.9,0-1.8,0.2-2.5,0.5
					c-0.8,0.3-1.5,0.8-2.1,1.4c-0.6,0.6-1.1,1.2-1.4,2c-0.3,0.8-0.5,1.6-0.5,2.5c0,0.9,0.2,1.7,0.5,2.5c0.3,0.8,0.8,1.4,1.4,2
					c0.6,0.6,1.3,1,2.1,1.3c0.8,0.3,1.6,0.5,2.5,0.5h4.4c0.3,0,0.6,0.1,0.8,0.2c0.3,0.1,0.5,0.3,0.7,0.4c0.2,0.2,0.4,0.4,0.5,0.7
					c0.1,0.3,0.2,0.5,0.2,0.8c0,0.3-0.1,0.6-0.2,0.8c-0.1,0.3-0.3,0.5-0.5,0.7c-0.2,0.2-0.4,0.3-0.7,0.4c-0.3,0.1-0.5,0.2-0.8,0.2
					h-9.7v4.2h9.7c0.9,0,1.8-0.2,2.5-0.5c0.8-0.3,1.5-0.8,2.1-1.4c0.6-0.6,1.1-1.2,1.4-2c0.3-0.8,0.5-1.6,0.5-2.5
					C485,137.7,484.9,136.9,484.5,136.1z"/>
			</g>
		</g>
		<path class="st2" d="M221,20.8c0,1.8-0.5,3.6-1.3,5.1c-1.8,3.4-5.4,5.7-9.5,5.7c-4.1,0-7.7-2.3-9.5-5.8c-0.8-1.5-1.2-3.2-1.2-5
			c0-5.9,4.8-10.7,10.7-10.7C216.2,10.1,221,14.9,221,20.8z"/>
	</g>
</g>
</svg>
